
<svg width="17px" height="17px" viewBox="0 0 17 17" version="1.1" xmlns="http://www.w3.org/2000/svg" xmlns:xlink="http://www.w3.org/1999/xlink">
	<g>
		<path fill="#979797" d="m0.963398,5.011125l0,0l0,6.98278c0,2.21545 1.79378,4.00861 4.00861,4.00861l6.98278,0c2.21545,0 4.00861,-1.79378 4.00861,-4.00861l0,-6.98278c0,-2.21545 -1.79378,-4.00861 -4.00861,-4.00861l-6.98278,0c-2.21545,0 -4.00861,1.79378 -4.00861,4.00861l0,0zm-1,0c0,-2.76618 2.23993,-5.00861 5.00861,-5.00861l6.98278,0c2.76618,0 5.00861,2.23993 5.00861,5.00861l0,6.98278c0,2.76618 -2.23993,5.00861 -5.00861,5.00861l-6.98278,0c-2.76618,0 -5.00861,-2.23993 -5.00861,-5.00861l0,-6.98278l0,0z"/>
		<path fill="#000000" d="m12.312728,5.032148l1.43296,1.2024c0.05694,0.04778 0.06388,0.13194 0.0163,0.18864l-5.84042,6.96035c-0.02949,0.03514 -0.0729,0.05136 -0.11511,0.04744c-0.02708,-0.00217 -0.05382,-0.01255 -0.07631,-0.03142l-3.88815,-3.26254c-0.05728,-0.04807 -0.06477,-0.13252 -0.01729,-0.18911l1.20239,-1.43296c0.04778,-0.05694 0.13221,-0.06366 0.18924,-0.01581l2.35472,1.97585l4.55306,-5.42614c0.04776,-0.05691 0.13202,-0.06418 0.18861,-0.0167l0,0z"/>
	</g>
</svg>