<?xml version="1.0" encoding="UTF-8" standalone="no"?>
<svg width="15px" height="15px" viewBox="0 0 15 15" version="1.1" xmlns="http://www.w3.org/2000/svg" xmlns:xlink="http://www.w3.org/1999/xlink">
    <!-- Generator: Sketch 3.7.2 (28276) - http://www.bohemiancoding.com/sketch -->
    <title>question-mark</title>
    <desc>Created with Sketch.</desc>
    <defs></defs>
    <g id="Desktop" stroke="none" stroke-width="1" fill="none" fill-rule="evenodd">
        <g id="Desktop---extra-belangrijk-Geselecteerd" transform="translate(-503.000000, -528.000000)">
            <g id="meningen-partijen" transform="translate(221.000000, 393.000000)">
                <g id="question-mark" transform="translate(282.000000, 135.000000)">
                    <circle id="Oval-28" fill="#858585" cx="7.5" cy="7.5" r="7.5"></circle>
                    <path d="M8.40039062,9.78515625 L6.90625,9.78515625 C6.90234373,9.57031143 6.90039062,9.43945336 6.90039062,9.39257812 C6.90039062,8.9082007 6.98046795,8.50976719 7.140625,8.19726562 C7.30078205,7.88476406 7.62109135,7.53320508 8.1015625,7.14257812 C8.58203365,6.75195117 8.86914016,6.49609436 8.96289062,6.375 C9.1074226,6.18359279 9.1796875,5.9726574 9.1796875,5.7421875 C9.1796875,5.4218734 9.05175909,5.14746208 8.79589844,4.91894531 C8.54003778,4.69042854 8.19531467,4.57617188 7.76171875,4.57617188 C7.34374791,4.57617188 6.99414203,4.69531131 6.71289062,4.93359375 C6.43163922,5.17187619 6.23828178,5.53515381 6.1328125,6.0234375 L4.62109375,5.8359375 C4.66406271,5.13671525 4.9619113,4.54297119 5.51464844,4.0546875 C6.06738558,3.56640381 6.79296426,3.32226562 7.69140625,3.32226562 C8.63672348,3.32226562 9.38866908,3.56933347 9.94726562,4.06347656 C10.5058622,4.55761966 10.7851562,5.13280922 10.7851562,5.7890625 C10.7851562,6.15234557 10.6826182,6.49609213 10.4775391,6.8203125 C10.2724599,7.14453287 9.83398773,7.58593471 9.16210938,8.14453125 C8.81445139,8.4335952 8.59863323,8.66601475 8.51464844,8.84179688 C8.43066364,9.017579 8.39257809,9.33202898 8.40039062,9.78515625 L8.40039062,9.78515625 Z M6.90625,12 L6.90625,10.3535156 L8.55273438,10.3535156 L8.55273438,12 L6.90625,12 Z" id="?" fill="#FFFFFF"></path>
                </g>
            </g>
        </g>
    </g>
</svg>