<svg width="17px" height="17px" viewBox="0 0 17 17" version="1.1" xmlns="http://www.w3.org/2000/svg" xmlns:xlink="http://www.w3.org/1999/xlink">
    <g>
        <g transform="translate(-262.000000, -621.000000)" fill="#979797">
            <g transform="translate(221.000000, 393.000000)">
                <path d="M42,233.008614 L42,233.008614 L42,239.991386 C42,242.206841 43.7937772,244 46.0086136,244 L52.9913864,244 C55.2068408,244 57,242.206223 57,239.991386 L57,233.008614 C57,230.793159 55.2062228,229 52.9913864,229 L46.0086136,229 C43.7931592,229 42,230.793777 42,233.008614 L42,233.008614 Z M41,233.008614 C41,230.242433 43.2399344,228 46.0086136,228 L52.9913864,228 C55.7575673,228 58,230.239934 58,233.008614 L58,239.991386 C58,242.757567 55.7600656,245 52.9913864,245 L46.0086136,245 C43.2424327,245 41,242.760066 41,239.991386 L41,233.008614 L41,233.008614 Z"></path>
            </g>
        </g>
    </g>
</svg>